# Blender v2.76 (sub 0) OBJ File: 'Motherboard.blend'
# www.blender.org
mtllib motherboard2.mtl
o Cube
v 9.789648 -0.754854 -6.741368
v 9.789648 -0.754854 9.658631
v -8.210353 -0.754854 9.658629
v -8.210348 -0.754854 -6.741371
v 9.789652 -0.588763 -6.741364
v 9.789642 -0.588763 9.658637
v -8.210355 -0.588763 9.658628
v -8.210351 -0.588763 -6.741368
v 9.789603 -0.588763 8.373803
v 9.789642 -0.588763 9.720790
v -8.210351 -0.588763 8.373803
v -8.210355 -0.588763 9.720790
v -1.361254 -0.588762 8.374011
v -1.361255 -0.588762 9.720998
v -3.155385 -0.588762 8.374011
v -3.155385 -0.588762 9.720998
v -1.628321 -0.243263 8.586277
v -2.888319 -0.439348 8.586277
v -1.628321 -0.439348 8.586277
v -3.021610 -0.128188 8.586277
v -1.495031 -0.128188 8.586277
v -3.021610 -0.513920 8.586277
v -1.495031 -0.513920 8.586277
v -3.021610 -0.128188 9.720998
v -1.495031 -0.128188 9.720998
v -3.021610 -0.513920 9.720998
v -1.495031 -0.513920 9.720998
v -3.155385 -0.053345 9.720998
v -3.155385 -0.053345 8.374011
v -1.361255 -0.053345 9.720998
v -1.361254 -0.053345 8.374011
v -3.155385 -0.588762 9.720998
v -3.155385 -0.588762 8.374011
v 9.789642 -0.588763 9.720790
v -1.361255 -0.588762 9.720998
v -1.361254 -0.588762 8.374011
v -4.164671 -0.588763 8.373803
v -4.142497 -0.588763 9.720790
v -5.131935 -0.588763 8.373803
v -5.131935 -0.588763 9.720790
v -4.142496 0.124133 8.373803
v -4.142497 0.124133 9.720790
v -5.131935 0.124133 8.373803
v -5.131935 0.124133 9.720790
v -4.251102 -0.588763 9.720790
v -4.714691 -0.588763 9.720790
v -4.251102 0.124133 9.720790
v -5.023330 0.124133 9.720790
v -4.251102 -0.391877 9.720790
v -5.023330 -0.391877 9.720790
v -4.251102 0.029326 9.720790
v -5.023330 0.029326 9.720790
v -4.251102 -0.391877 8.797472
v -5.023330 -0.391877 8.797472
v -4.251102 0.029326 8.797472
v -5.023330 0.029326 8.797472
v -4.251102 -0.588763 9.720790
v -5.023330 -0.588763 9.720790
v -4.251102 -0.391877 9.720790
v -5.023330 -0.391877 9.720790
v -4.251102 -0.391877 8.797472
v -5.023330 -0.391877 8.797472
v -4.477837 -0.588763 9.720790
v -4.796595 -0.588763 9.720790
v -4.477837 -0.391877 9.720790
v -4.796595 -0.391877 9.720790
v -4.477837 -0.391877 8.797472
v -4.796595 -0.391877 8.797472
v -4.477837 -0.449345 9.720790
v -4.796595 -0.449345 9.720790
v -4.477837 -0.449345 8.797472
v -4.796595 -0.449345 8.797472
v -4.570897 -0.449345 9.720790
v -4.703536 -0.449345 9.720790
v -4.570897 -0.449345 8.797472
v -4.703536 -0.449345 8.797472
v -4.570897 -0.519023 9.720790
v -4.703536 -0.519023 9.720790
v -4.570897 -0.519023 8.797472
v -4.703536 -0.519023 8.797472
v 6.457267 -0.588763 8.373803
v 6.457266 -0.588763 9.720790
v 5.777349 -0.588763 8.373803
v 5.777349 -0.588763 9.720790
v 6.457267 0.116209 8.373803
v 6.457266 0.116209 9.720790
v 5.777349 0.116209 8.373803
v 5.777349 0.116209 9.720790
v 6.269705 -0.317892 9.720790
v 5.964911 -0.317892 9.720790
v 6.269705 -0.001866 9.720790
v 5.964911 -0.001866 9.720790
v 6.114228 -0.296793 9.726335
v 6.087472 -0.294158 9.726323
v 6.061744 -0.286353 9.726290
v 6.038034 -0.273680 9.726233
v 6.017251 -0.256624 9.726159
v 6.000195 -0.235841 9.726068
v 5.987522 -0.212131 9.725965
v 5.979718 -0.186404 9.725853
v 5.977082 -0.159648 9.725736
v 5.979718 -0.132893 9.725618
v 5.987522 -0.107165 9.725507
v 6.000195 -0.083455 9.725403
v 6.017251 -0.062673 9.725312
v 6.038034 -0.045616 9.725238
v 6.061744 -0.032943 9.725182
v 6.087472 -0.025139 9.725148
v 6.114228 -0.022503 9.725137
v 6.140984 -0.025139 9.725148
v 6.166711 -0.032943 9.725182
v 6.190423 -0.045616 9.725238
v 6.211205 -0.062673 9.725312
v 6.228261 -0.083455 9.725403
v 6.240934 -0.107165 9.725507
v 6.248739 -0.132893 9.725618
v 6.251374 -0.159648 9.725736
v 6.248739 -0.186404 9.725853
v 6.240934 -0.212131 9.725965
v 6.228261 -0.235842 9.726068
v 6.211204 -0.256624 9.726159
v 6.190422 -0.273680 9.726233
v 6.166711 -0.286353 9.726290
v 6.140983 -0.294158 9.726323
v 6.087472 -0.299156 8.581871
v 6.114228 -0.301791 8.581882
v 6.061744 -0.291352 8.581838
v 6.038034 -0.278678 8.581781
v 6.017251 -0.261623 8.581707
v 6.000195 -0.240840 8.581616
v 5.987522 -0.217130 8.581512
v 5.979718 -0.191403 8.581401
v 5.977082 -0.164647 8.581284
v 5.979718 -0.137892 8.581166
v 5.987522 -0.112164 8.581055
v 6.000195 -0.088454 8.580951
v 6.017251 -0.067671 8.580860
v 6.038034 -0.050615 8.580786
v 6.061744 -0.037942 8.580729
v 6.087472 -0.030138 8.580696
v 6.114228 -0.027502 8.580685
v 6.140984 -0.030138 8.580696
v 6.166711 -0.037942 8.580729
v 6.190423 -0.050615 8.580786
v 6.211205 -0.067671 8.580860
v 6.228261 -0.088454 8.580951
v 6.240934 -0.112164 8.581055
v 6.248739 -0.137892 8.581166
v 6.251374 -0.164647 8.581284
v 6.248739 -0.191403 8.581401
v 6.240934 -0.217130 8.581512
v 6.228261 -0.240841 8.581616
v 6.211204 -0.261623 8.581707
v 6.190422 -0.278678 8.581781
v 6.166711 -0.291352 8.581838
v 6.140983 -0.299156 8.581871
v -1.288294 -0.484163 4.483529
v -1.288294 -0.484163 -0.274633
v 3.621388 -0.484163 -0.274633
v 3.621388 -0.484163 4.483529
v -3.812781 -0.601347 -0.808418
v -3.812781 -0.601347 5.633869
v -1.170601 -0.540626 4.369469
v -1.170601 -0.540626 -0.160573
v 3.503696 -0.540626 -0.160573
v 3.503696 -0.540626 4.369469
v 3.503696 -0.484163 -0.160573
v -1.170601 -0.484163 -0.160573
v 3.503696 -0.484163 4.369469
v -1.170601 -0.484163 4.369469
v 3.621388 -0.597890 4.483529
v 3.621388 -0.484163 4.483529
v 3.621388 -0.597890 -0.274633
v 3.621388 -0.484163 -0.274633
v -1.288294 -0.597890 4.483529
v -1.288294 -0.484163 4.483529
v -1.288294 -0.597890 -0.274633
v -1.288294 -0.484163 -0.274633
v -3.812781 -0.601347 -0.808418
v -3.812781 -0.781579 5.633869
v -1.361254 -0.588762 8.374011
v -4.072238 1.438396 4.987904
v -1.361255 -0.588762 9.720998
v 9.789642 -0.588763 9.720790
v -3.155385 -0.588762 8.374011
v -3.155385 -0.588762 9.720998
v -1.361254 -0.588762 8.374011
v -1.361255 -0.588762 9.720998
v 9.789642 -0.588763 9.720790
v -3.155385 -0.588762 8.374011
v -3.155385 -0.588762 9.720998
v -3.833858 -0.588763 9.720790
v -3.155385 -0.588762 9.720998
v -3.155385 -0.588762 8.374011
v 9.789642 -0.588763 9.720790
v -1.361255 -0.588762 9.720998
v -1.361254 -0.588762 8.374011
v -3.833858 -0.588763 9.720790
v -3.833858 -0.588763 9.720790
v -2.888319 -0.243263 8.586277
v -1.628321 -0.439348 9.694933
v -2.888319 -0.439348 9.694933
v -1.628321 -0.243263 9.694933
v -2.888319 -0.243263 9.694933
v -3.833858 -0.588763 9.720790
vt 0.216614 0.078754
vt 0.216810 0.078690
vt 0.216851 0.078722
vt 0.216684 0.078753
vt 0.216794 0.078755
vt 0.130214 0.112248
vt 0.084922 0.039043
vt 0.216986 0.078736
vt 0.303725 0.112161
vt 0.331169 0.041670
vt 0.039781 0.024966
vt 0.377436 0.029143
vt 0.316661 0.123357
vt 0.120818 0.119814
vt 0.403620 0.347383
vt 0.302013 0.269484
vt 0.025980 0.346945
vt 0.111272 0.248070
vt 0.430793 0.374287
vt 0.000102 0.374287
vt 0.006958 0.367098
vt 0.423599 0.367194
vt 0.016254 0.000102
vt 0.022460 0.006645
vt 0.399524 0.004375
vt 0.393692 0.010874
vt 0.436938 0.194157
vt 0.617409 0.246409
vt 0.530538 0.178856
vt 0.476606 0.138434
vt 0.558269 0.277941
vt 0.595223 0.565399
vt 0.494783 0.473098
vt 0.505114 0.252266
vt 0.617409 0.562610
vt 0.430998 0.499574
vt 0.509847 0.198722
vt 0.474852 0.075494
vt 0.491147 0.167917
vt 0.532939 0.236455
vt 0.518944 0.175102
vt 0.519598 0.187996
vt 0.516081 0.153126
vt 0.517380 0.145946
vt 0.510899 0.142030
vt 0.504746 0.164372
vt 0.505921 0.131485
vt 0.504942 0.143667
vt 0.461211 0.074773
vt 0.447404 0.000102
vt 0.494717 0.133209
vt 0.505840 0.130542
vt 0.507589 0.137684
vt 0.453543 0.041847
vt 0.520082 0.173568
vt 0.485597 0.114603
vt 0.506725 0.135055
vt 0.505273 0.133235
vt 0.476872 0.100232
vt 0.489502 0.138433
vt 0.469314 0.078388
vt 0.492808 0.108550
vt 0.504255 0.132032
vt 0.469700 0.081404
vt 0.469149 0.088762
vt 0.503317 0.132188
vt 0.461779 0.064407
vt 0.504502 0.131225
vt 0.473688 0.096008
vt 0.505131 0.131628
vt 0.991721 0.591969
vt 0.954774 0.721113
vt 0.939603 0.668177
vt 0.999898 0.624533
vt 0.736898 0.631254
vt 0.725233 0.660256
vt 0.695539 0.565604
vt 0.676895 0.721113
vt 0.658484 0.671853
vt 0.696913 0.651911
vt 0.701178 0.644666
vt 0.658710 0.628123
vt 0.678211 0.648456
vt 0.678685 0.648561
vt 0.679193 0.648679
vt 0.679702 0.648855
vt 0.680243 0.649045
vt 0.680686 0.649382
vt 0.681156 0.649731
vt 0.681602 0.650132
vt 0.682073 0.650547
vt 0.627841 0.653374
vt 0.627893 0.653307
vt 0.610957 0.654478
vt 0.618901 0.650940
vt 0.626958 0.647674
vt 0.635341 0.645369
vt 0.643805 0.643347
vt 0.652486 0.643831
vt 0.661164 0.644607
vt 0.669706 0.646387
vt 0.615504 0.653665
vt 0.575311 0.660474
vt 0.534738 0.664903
vt 0.493969 0.667942
vt 0.430998 0.668717
vt 0.505879 0.659002
vt 0.540892 0.656000
vt 0.575923 0.654204
vt 0.673984 0.653542
vt 0.665757 0.656057
vt 0.657477 0.658290
vt 0.648959 0.659189
vt 0.640430 0.659800
vt 0.632032 0.658106
vt 0.623702 0.656129
vt 0.625384 0.653497
vt 0.625323 0.653419
vt 0.625378 0.653333
vt 0.625514 0.653243
vt 0.625706 0.653159
vt 0.625931 0.653085
vt 0.626165 0.653027
vt 0.626404 0.652984
vt 0.626641 0.652956
vt 0.626872 0.652942
vt 0.627092 0.652941
vt 0.627296 0.652953
vt 0.627477 0.652977
vt 0.627631 0.653012
vt 0.627751 0.653058
vt 0.627890 0.653175
vt 0.627637 0.653498
vt 0.627483 0.653551
vt 0.627300 0.653599
vt 0.627090 0.653646
vt 0.626870 0.653660
vt 0.626637 0.653675
vt 0.626399 0.653680
vt 0.626161 0.653674
vt 0.625929 0.653653
vt 0.625708 0.653616
vt 0.625520 0.653563
vt 0.083188 0.925074
vt 0.081106 0.106652
vt 0.098463 0.119133
vt 0.095969 0.906841
vt 0.957962 0.029272
vt 0.959383 0.928435
vt 0.939783 0.912678
vt 0.941779 0.049915
vt 0.979759 0.006473
vt 0.981419 0.949279
vt 0.040617 0.067565
vt 0.018582 0.046722
vt 0.042038 0.966728
vt 0.020241 0.989527
vt 0.060217 0.083322
vt 0.058221 0.946085
vt 0.221746 0.302381
vt 0.916812 0.070927
vt 0.918894 0.889348
vt 0.901537 0.876867
vt 0.904031 0.089159
vt 0.388084 0.017157
vt 0.028439 0.012951
vt 0.013536 0.360158
vt 0.416686 0.360368
vt 0.034207 0.019054
vt 0.019872 0.353447
vt 0.410034 0.353769
vt 0.382668 0.023240
vt 0.006819 0.955037
vt 0.998737 0.959628
vt 1.000371 0.055880
vt 0.008453 0.051289
vt 0.994752 0.942834
vt 0.009358 0.945032
vt 0.008637 0.117565
vt 0.994028 0.115368
vt 0.678463 1.082568
vt 0.698065 1.082624
vt 0.697857 1.270939
vt 0.678256 1.270883
vt 0.698190 1.082624
vt 0.717791 1.083506
vt 0.717378 1.453056
vt 0.697776 1.453000
vt 0.678202 1.206710
vt 0.658601 1.206653
vt 0.658739 1.082511
vt 0.678341 1.082567
vt 0.000000 0.000000
vn 0.000000 0.000000 1.000000
vn -1.000000 0.000000 0.000000
vn 1.000000 0.000000 0.000000
vn 0.000000 -1.000000 0.000000
vn 0.000000 1.000000 0.000000
vn 0.000000 0.000000 -1.000000
vn 0.999800 -0.015600 -0.008200
vn 0.000000 0.111000 0.993800
vn 0.290300 -0.956900 0.004200
vn -0.154300 -0.000100 0.988000
vn 0.000000 -0.134900 0.990900
vn 0.129700 0.000200 0.991600
vn 0.000000 0.004400 1.000000
vn 0.290300 0.956900 -0.004200
vn -0.634400 0.773000 -0.003400
vn 0.098000 -0.995200 0.004300
vn 0.471400 0.881900 -0.003900
vn -0.471400 0.881900 -0.003900
vn -0.098000 -0.995200 0.004300
vn 0.634400 0.773000 -0.003400
vn -0.290300 0.956900 -0.004200
vn -0.290300 -0.956900 0.004200
vn 0.773000 0.634400 -0.002800
vn -0.098000 0.995200 -0.004300
vn -0.471400 -0.881900 0.003900
vn 0.881900 0.471400 -0.002100
vn -0.634400 -0.773000 0.003400
vn 0.956900 0.290300 -0.001300
vn -0.773000 -0.634400 0.002800
vn 0.995200 0.098000 -0.000400
vn -0.881900 -0.471400 0.002100
vn 0.995200 -0.098100 0.000400
vn -0.956900 -0.290300 0.001300
vn 0.956900 -0.290300 0.001300
vn -0.995200 -0.098000 0.000400
vn 0.881900 -0.471400 0.002100
vn -0.995200 0.098000 -0.000400
vn 0.773000 -0.634400 0.002800
vn -0.956900 0.290300 -0.001300
vn 0.634400 -0.773000 0.003400
vn -0.881900 0.471400 -0.002100
vn 0.471400 -0.881900 0.003900
vn 0.098000 0.995200 -0.004300
vn -0.773000 0.634400 -0.002800
vn 0.000000 -1.000000 0.004800
vn 0.000000 -1.000000 0.005400
vn 0.000000 1.000000 -0.004900
vn 0.000000 1.000000 -0.005400
usemtl Material
s off
f 21/1/1 20/2/1 200/3/1 17/4/1
f 200/3/2 18/3/2 202/5/2 204/5/2
f 24/6/3 26/7/3 22/8/3 20/2/3
f 25/9/4 24/6/4 20/2/4 21/1/4
f 27/10/2 25/9/2 21/1/2 23/5/2
f 23/5/1 21/1/1 17/4/1 19/4/1
f 193/11/1 196/12/1 27/10/1 26/7/1
f 196/12/1 30/13/1 25/9/1 27/10/1
f 30/13/1 28/14/1 24/6/1 25/9/1
f 26/7/5 27/10/5 23/5/5 22/8/5
f 196/12/3 197/15/3 31/16/3 30/13/3
f 28/14/1 193/11/1 26/7/1 24/6/1
f 197/15/6 194/17/6 29/18/6 31/16/6
f 31/16/5 29/18/5 28/14/5 30/13/5
f 194/17/2 193/11/2 28/14/2 29/18/2
f 13/19/1 15/20/1 185/21/1 181/22/1
f 15/20/1 16/23/1 186/24/1 185/21/1
f 14/25/1 13/19/1 181/22/1 183/26/1
f 16/23/1 14/25/1 183/26/1 186/24/1
f 40/27/6 38/28/6 45/29/6 46/30/6
f 42/31/5 41/32/5 43/33/5 44/34/5
f 38/28/7 37/35/7 41/32/7 42/31/7
f 37/35/6 39/36/6 43/33/6 41/32/6
f 39/36/2 40/27/2 44/34/2 43/33/2
f 48/37/6 46/30/6 50/38/6 52/39/6
f 44/34/1 40/27/1 46/30/1 48/37/1
f 38/28/1 42/31/1 47/40/1 45/29/1
f 42/31/1 44/34/1 48/37/1 47/40/1
f 49/41/2 51/42/2 55/43/2 53/44/2
f 47/40/1 48/37/1 52/39/1 51/42/1
f 45/29/1 47/40/1 51/42/1 49/41/1
f 49/41/1 53/44/1 61/45/1 59/46/1
f 54/47/1 53/44/1 55/43/1 56/48/1
f 50/38/6 46/30/6 58/49/6 60/50/6
f 52/39/3 50/38/3 54/47/3 56/48/3
f 61/45/1 62/51/1 68/52/1 67/53/1
f 62/51/5 60/50/5 66/54/5 68/52/5
f 45/29/1 49/41/1 59/46/1 57/55/1
f 46/30/1 45/29/1 57/55/1 58/49/1
f 53/44/1 54/47/1 62/51/1 61/45/1
f 69/56/5 71/57/5 75/58/5 73/59/5
f 65/60/2 67/53/2 71/57/2 69/56/2
f 60/50/1 58/49/1 64/61/1 66/54/1
f 58/49/1 57/55/1 63/62/1 64/61/1
f 59/46/5 61/45/5 67/53/5 65/60/5
f 57/55/1 59/46/1 65/60/1 63/62/1
f 76/63/3 74/64/3 78/65/3 80/66/3
f 68/52/3 66/54/3 70/67/3 72/68/3
f 67/53/1 68/52/1 72/68/1 71/57/1
f 72/68/5 70/67/5 74/64/5 76/63/5
f 71/57/1 72/68/1 76/63/1 75/58/1
f 78/65/5 77/69/5 79/70/5 80/66/5
f 75/58/1 76/63/1 80/66/1 79/70/1
f 73/59/2 75/58/2 79/70/2 77/69/2
f 63/62/1 69/56/1 73/59/1 77/69/1 78/65/1 74/64/1 70/67/1 66/54/1 64/61/1
f 81/71/6 83/72/6 87/73/6 85/74/6
f 86/75/5 85/74/5 87/73/5 88/76/5
f 82/77/3 81/71/3 85/74/3 86/75/3
f 88/76/1 84/78/1 90/79/1 92/80/1
f 83/72/2 84/78/2 88/76/2 87/73/2
f 86/75/1 88/76/1 92/80/1 91/81/1
f 84/78/1 82/77/1 89/82/1 90/79/1
f 82/77/1 86/75/1 91/81/1 89/82/1
f 105/83/8 106/84/8 107/85/8 108/86/8 109/87/8 110/88/8 111/89/8 112/90/8 113/91/8 91/81/8 92/80/8
f 108/86/9 107/85/9 139/92/9 140/93/9
f 97/94/10 98/95/10 99/96/10 100/97/10 101/98/10 102/99/10 103/100/10 104/101/10 105/83/10 92/80/10 90/79/10
f 121/102/11 122/103/11 123/104/11 124/105/11 93/106/11 94/107/11 95/108/11 96/109/11 97/94/11 90/79/11 89/82/11
f 113/91/12 114/110/12 115/111/12 116/112/12 117/113/12 118/114/12 119/115/12 120/116/12 121/102/12 89/82/12 91/81/12
f 125/117/13 126/118/13 156/119/13 155/120/13 154/121/13 153/122/13 152/123/13 151/124/13 150/125/13 149/126/13 148/127/13 147/128/13 146/129/13 145/130/13 144/131/13 143/131/13 142/132/13 141/132/13 140/93/13 139/92/13 138/92/13 137/133/13 136/134/13 135/135/13 134/136/13 133/137/13 132/138/13 131/139/13 130/140/13 129/141/13 128/142/13 127/143/13
f 95/108/14 94/107/14 125/117/14 127/143/14
f 122/103/15 121/102/15 153/122/15 154/121/15
f 109/87/16 108/86/16 140/93/16 141/132/16
f 96/109/17 95/108/17 127/143/17 128/142/17
f 123/104/18 122/103/18 154/121/18 155/120/18
f 110/88/19 109/87/19 141/132/19 142/132/19
f 97/94/20 96/109/20 128/142/20 129/141/20
f 124/105/21 123/104/21 155/120/21 156/119/21
f 111/89/22 110/88/22 142/132/22 143/131/22
f 98/95/23 97/94/23 129/141/23 130/140/23
f 93/106/24 124/105/24 156/119/24 126/118/24
f 112/90/25 111/89/25 143/131/25 144/131/25
f 99/96/26 98/95/26 130/140/26 131/139/26
f 113/91/27 112/90/27 144/131/27 145/130/27
f 100/97/28 99/96/28 131/139/28 132/138/28
f 114/110/29 113/91/29 145/130/29 146/129/29
f 101/98/30 100/97/30 132/138/30 133/137/30
f 115/111/31 114/110/31 146/129/31 147/128/31
f 102/99/32 101/98/32 133/137/32 134/136/32
f 116/112/33 115/111/33 147/128/33 148/127/33
f 103/100/34 102/99/34 134/136/34 135/135/34
f 117/113/35 116/112/35 148/127/35 149/126/35
f 104/101/36 103/100/36 135/135/36 136/134/36
f 118/114/37 117/113/37 149/126/37 150/125/37
f 105/83/38 104/101/38 136/134/38 137/133/38
f 119/115/39 118/114/39 150/125/39 151/124/39
f 106/84/40 105/83/40 137/133/40 138/92/40
f 120/116/41 119/115/41 151/124/41 152/123/41
f 107/85/42 106/84/42 138/92/42 139/92/42
f 94/107/43 93/106/43 126/118/43 125/117/43
f 121/102/44 120/116/44 152/123/44 153/122/44
f 170/144/2 168/145/2 164/146/2 163/147/2
f 174/148/1 172/149/1 160/150/1 159/151/1
f 172/149/2 174/148/2 173/152/2 171/153/2
f 174/148/1 178/154/1 177/155/1 173/152/1
f 178/154/3 176/156/3 175/157/3 177/155/3
f 176/156/6 172/149/6 171/153/6 175/157/6
f 176/156/1 178/154/1 158/158/1 157/159/1
f 171/160/5 173/160/5 177/160/5 175/160/5
f 158/158/4 159/151/4 167/161/4 168/145/4
f 172/149/1 176/156/1 157/159/1 160/150/1
f 169/162/1 170/144/1 163/147/1 166/163/1
f 167/161/3 169/162/3 166/163/3 165/164/3
f 168/145/6 167/161/6 165/164/6 164/146/6
f 163/147/5 166/163/5 165/164/5 164/146/5
f 160/150/4 157/159/4 170/144/4 169/162/4
f 157/159/4 158/158/4 168/145/4 170/144/4
f 159/151/4 160/150/4 169/162/4 167/161/4
f 178/154/1 174/148/1 159/151/1 158/158/1
f 186/24/1 183/26/1 35/165/1 32/166/1
f 181/22/1 185/21/1 33/167/1 36/168/1
f 185/21/1 186/24/1 32/166/1 33/167/1
f 183/26/1 181/22/1 36/168/1 35/165/1
f 33/167/1 32/166/1 191/169/1 190/170/1
f 36/168/1 33/167/1 190/170/1 187/171/1
f 32/166/1 35/165/1 188/172/1 191/169/1
f 35/165/1 36/168/1 187/171/1 188/172/1
f 187/171/1 190/170/1 194/17/1 197/15/1
f 190/170/1 191/169/1 193/11/1 194/17/1
f 188/172/1 187/171/1 197/15/1 196/12/1
f 191/169/1 188/172/1 196/12/1 193/11/1
f 20/2/1 22/8/1 18/3/1 200/3/1
f 22/8/1 23/5/1 19/4/1 18/3/1
f 202/5/1 201/2/1 203/5/1 204/5/1
f 19/4/3 17/4/3 203/5/3 201/2/3
f 17/4/5 200/3/5 204/5/5 203/5/5
usemtl Material_motherboard.jpg
f 1/173/5 4/174/5 3/175/5 2/176/5
f 5/177/5 8/178/5 11/179/5 9/180/5
f 11/181/5 12/182/5 16/183/5 15/184/5
f 37/185/5 38/186/5 84/187/5 83/188/5
f 10/189/5 9/190/5 81/191/5 82/192/5
usemtl Material_NONE
f 7/193/4 6/193/4 10/193/4 12/193/4
f 1/193/3 5/193/3 6/193/3 2/193/3
f 2/193/1 6/193/1 7/193/1 3/193/1
f 3/193/2 7/193/2 8/193/2 4/193/2
f 5/193/6 1/193/6 4/193/6 8/193/6
f 12/193/45 10/193/45 14/193/45 16/193/45
f 6/193/5 5/193/5 9/193/5 10/193/5
f 8/193/5 7/193/5 12/193/5 11/193/5
f 9/193/46 13/193/46 39/193/46 37/193/46
f 9/193/47 11/193/47 15/193/47 13/193/47
f 10/193/1 14/193/1 183/193/1 184/193/1
f 10/193/1 38/193/1 192/193/1 184/193/1
f 14/193/48 10/193/48 38/193/48 40/193/48
f 13/193/4 14/193/4 40/193/4 39/193/4
f 38/193/1 10/193/1 82/193/1 84/193/1
f 51/193/4 52/193/4 56/193/4 55/193/4
f 54/193/1 50/193/1 60/193/1 62/193/1
f 9/193/6 37/193/6 83/193/6 81/193/6
f 184/193/1 183/193/1 35/193/1 34/193/1
f 184/193/1 192/193/1 198/193/1 34/193/1
f 34/193/1 198/193/1 199/193/1 189/193/1
f 34/193/1 35/193/1 188/193/1 189/193/1
f 189/193/1 199/193/1 205/193/1 195/193/1
f 189/193/1 188/193/1 196/193/1 195/193/1
f 18/193/4 19/193/4 201/193/4 202/193/4
l 162 180
l 179 161
