# Blender v2.76 (sub 0) OBJ File: 'Motherboard.blend'
# www.blender.org
mtllib Motherboard.mtl
o Cube
v 9.000000 -0.083045 -7.200000
v 9.000000 -0.083045 9.200000
v -9.000001 -0.083045 9.199998
v -8.999996 -0.083045 -7.200003
v 9.000004 0.083045 -7.199995
v 8.999994 0.083045 9.200006
v -9.000003 0.083045 9.199997
v -8.999999 0.083045 -7.200000
v 9.000004 0.083045 7.915172
v 8.999994 0.083045 9.262158
v -8.999999 0.083045 7.915172
v -9.000003 0.083045 9.262158
v -5.999326 0.083045 7.915172
v -5.999327 0.083045 9.262158
v -7.437876 0.083045 7.915172
v -7.437876 0.083045 9.262158
v -5.999326 0.798693 7.915172
v -5.999327 0.798693 9.262158
v -7.437876 0.798693 7.915172
v -7.437876 0.798693 9.262158
v -6.106589 0.157888 9.262158
v -7.330614 0.157888 9.262158
v -6.106589 0.723851 9.262158
v -7.330614 0.723851 9.262158
v -6.106589 0.157888 8.127438
v -7.330614 0.157888 8.127438
v -6.106589 0.723851 8.127438
v -7.330614 0.723851 8.127438
v -6.213463 0.232459 8.127438
v -7.223740 0.232459 8.127438
v -6.213463 0.428544 8.127438
v -7.223740 0.428544 8.127438
v -6.213463 0.232459 9.236094
v -7.223740 0.232459 9.236094
v -6.213463 0.428544 9.236094
v -7.223740 0.428544 9.236094
v -4.623505 0.083045 7.915172
v -4.623506 0.083045 9.262158
v -5.612944 0.083045 7.915172
v -5.612944 0.083045 9.262158
v -4.623505 0.795942 7.915172
v -4.623506 0.795942 9.262158
v -5.612944 0.795942 7.915172
v -5.612944 0.795942 9.262158
v -4.732111 0.083045 9.262158
v -5.504339 0.083045 9.262158
v -4.732111 0.795942 9.262158
v -5.504339 0.795942 9.262158
v -4.732111 0.279931 9.262158
v -5.504339 0.279931 9.262158
v -4.732111 0.701134 9.262158
v -5.504339 0.701134 9.262158
v -4.732111 0.279931 8.338840
v -5.504339 0.279931 8.338840
v -4.732111 0.701134 8.338840
v -5.504339 0.701134 8.338840
v -4.732111 0.083045 9.262158
v -5.504339 0.083045 9.262158
v -4.732111 0.279931 9.262158
v -5.504339 0.279931 9.262158
v -4.732111 0.279931 8.338840
v -5.504339 0.279931 8.338840
v -4.958846 0.083045 9.262158
v -5.277604 0.083045 9.262158
v -4.958846 0.279931 9.262158
v -5.277604 0.279931 9.262158
v -4.958846 0.279931 8.338840
v -5.277604 0.279931 8.338840
v -4.958846 0.222463 9.262158
v -5.277604 0.222463 9.262158
v -4.958846 0.222463 8.338840
v -5.277604 0.222463 8.338840
v -5.051906 0.222463 9.262158
v -5.184545 0.222463 9.262158
v -5.051906 0.222463 8.338840
v -5.184545 0.222463 8.338840
v -5.051906 0.152785 9.262158
v -5.184545 0.152785 9.262158
v -5.051906 0.152785 8.338840
v -5.184545 0.152785 8.338840
v 4.603262 0.083045 7.915172
v 4.603261 0.083045 9.262158
v 3.923344 0.083045 7.915172
v 3.923344 0.083045 9.262158
v 4.603262 0.788017 7.915172
v 4.603261 0.788017 9.262158
v 3.923344 0.788017 7.915172
v 3.923344 0.788017 9.262158
v 4.415700 0.353917 9.262158
v 4.110906 0.353917 9.262158
v 4.415700 0.669943 9.262158
v 4.110906 0.669943 9.262158
v 4.260223 0.375016 9.267703
v 4.233467 0.377651 9.267692
v 4.207739 0.385455 9.267658
v 4.184029 0.398129 9.267602
v 4.163246 0.415184 9.267528
v 4.146190 0.435967 9.267437
v 4.133517 0.459677 9.267333
v 4.125712 0.485404 9.267221
v 4.123077 0.512160 9.267104
v 4.125712 0.538915 9.266987
v 4.133517 0.564643 9.266875
v 4.146190 0.588353 9.266771
v 4.163246 0.609136 9.266681
v 4.184029 0.626192 9.266606
v 4.207739 0.638865 9.266550
v 4.233467 0.646669 9.266517
v 4.260223 0.649305 9.266505
v 4.286979 0.646669 9.266517
v 4.312706 0.638865 9.266550
v 4.336417 0.626192 9.266606
v 4.357200 0.609136 9.266681
v 4.374256 0.588353 9.266771
v 4.386929 0.564643 9.266875
v 4.394733 0.538915 9.266987
v 4.397368 0.512160 9.267104
v 4.394733 0.485404 9.267221
v 4.386929 0.459677 9.267333
v 4.374255 0.435966 9.267437
v 4.357199 0.415184 9.267528
v 4.336417 0.398129 9.267602
v 4.312706 0.385455 9.267658
v 4.286978 0.377651 9.267692
v 4.233467 0.372652 8.123240
v 4.260223 0.370017 8.123251
v 4.207739 0.380457 8.123206
v 4.184029 0.393130 8.123150
v 4.163246 0.410185 8.123075
v 4.146190 0.430969 8.122985
v 4.133517 0.454679 8.122881
v 4.125712 0.480406 8.122769
v 4.123077 0.507162 8.122652
v 4.125712 0.533917 8.122535
v 4.133517 0.559645 8.122423
v 4.146190 0.583355 8.122319
v 4.163246 0.604137 8.122229
v 4.184029 0.621193 8.122154
v 4.207739 0.633867 8.122098
v 4.233467 0.641670 8.122065
v 4.260223 0.644306 8.122053
v 4.286979 0.641670 8.122065
v 4.312706 0.633867 8.122098
v 4.336417 0.621193 8.122154
v 4.357200 0.604137 8.122229
v 4.374256 0.583355 8.122319
v 4.386929 0.559645 8.122423
v 4.394733 0.533917 8.122535
v 4.397368 0.507162 8.122652
v 4.394733 0.480406 8.122769
v 4.386929 0.454679 8.122881
v 4.374255 0.430968 8.122985
v 4.357199 0.410185 8.123075
v 4.336417 0.393130 8.123150
v 4.312706 0.380457 8.123206
v 4.286978 0.372652 8.123240
v -2.077941 0.187645 4.024898
v -2.077941 0.187645 -0.733265
v 2.831740 0.187645 -0.733265
v 2.831740 0.187645 4.024898
v -4.602429 0.070461 -1.267049
v -4.602429 0.070461 5.175238
v -1.960249 0.131182 3.910838
v -1.960249 0.131182 -0.619204
v 2.714048 0.131182 -0.619204
v 2.714048 0.131182 3.910838
v 2.714048 0.187645 -0.619204
v -1.960249 0.187645 -0.619204
v 2.714048 0.187645 3.910838
v -1.960249 0.187645 3.910838
v 2.831740 0.073919 4.024898
v 2.831740 0.187645 4.024898
v 2.831740 0.073919 -0.733265
v 2.831740 0.187645 -0.733265
v -2.077941 0.073919 4.024898
v -2.077941 0.187645 4.024898
v -2.077941 0.073919 -0.733265
v -2.077941 0.187645 -0.733265
v -4.602429 0.070461 -1.267049
v -4.602429 0.070461 5.175238
v -4.861886 1.047967 4.529273
v -4.861886 2.110204 4.529273
v -2.861886 1.556190 4.529273
v -4.861886 1.805604 4.529273
vn 0.000000 -1.000000 0.000000
vn 1.000000 0.000000 0.000000
vn -0.000000 -0.000000 1.000000
vn -1.000000 -0.000000 -0.000000
vn 0.000000 0.000000 -1.000000
vn 0.000000 1.000000 0.000000
vn 0.000000 0.111000 0.993800
vn 0.290300 -0.956900 0.004200
vn -0.154400 -0.000100 0.988000
vn 0.000000 -0.134900 0.990900
vn 0.129700 0.000200 0.991600
vn 0.000000 0.004400 1.000000
vn 0.290300 0.956900 -0.004200
vn -0.634400 0.773000 -0.003400
vn 0.098000 -0.995200 0.004300
vn 0.471400 0.881900 -0.003900
vn -0.471400 0.881900 -0.003900
vn -0.098000 -0.995200 0.004300
vn 0.634400 0.773000 -0.003400
vn -0.290300 0.956900 -0.004200
vn -0.290300 -0.956900 0.004200
vn 0.773000 0.634400 -0.002800
vn -0.098000 0.995200 -0.004300
vn -0.471400 -0.881900 0.003900
vn 0.881900 0.471400 -0.002100
vn -0.634400 -0.773000 0.003400
vn 0.956900 0.290300 -0.001300
vn -0.773000 -0.634400 0.002800
vn 0.995200 0.098000 -0.000400
vn -0.881900 -0.471400 0.002100
vn 0.995200 -0.098000 0.000400
vn -0.956900 -0.290300 0.001300
vn 0.956900 -0.290300 0.001300
vn -0.995200 -0.098000 0.000400
vn 0.881900 -0.471400 0.002100
vn -0.995200 0.098000 -0.000400
vn 0.773000 -0.634400 0.002800
vn -0.956900 0.290300 -0.001300
vn 0.634400 -0.773000 0.003400
vn -0.881900 0.471400 -0.002100
vn 0.471400 -0.881900 0.003900
vn 0.098000 0.995200 -0.004300
vn -0.773000 0.634400 -0.002800
usemtl Material
s off
f 1//1 2//1 3//1 4//1
f 7//1 6//1 10//1 12//1
f 1//2 5//2 6//2 2//2
f 2//3 6//3 7//3 3//3
f 3//4 7//4 8//4 4//4
f 5//5 1//5 4//5 8//5
f 12//3 10//3 14//3 16//3
f 6//1 5//1 9//1 10//1
f 8//6 7//6 12//6 11//6
f 5//6 8//6 11//6 9//6
f 15//4 16//4 20//4 19//4
f 9//3 13//3 39//3 37//3
f 11//6 12//6 16//6 15//6
f 9//3 11//3 15//3 13//3
f 17//6 19//6 20//6 18//6
f 13//5 15//5 19//5 17//5
f 20//3 16//3 22//3 24//3
f 14//2 13//2 17//2 18//2
f 22//6 21//6 25//6 26//6
f 18//3 20//3 24//3 23//3
f 14//3 18//3 23//3 21//3
f 16//3 14//3 21//3 22//3
f 25//3 27//3 31//3 29//3
f 21//4 23//4 27//4 25//4
f 23//1 24//1 28//1 27//1
f 24//2 22//2 26//2 28//2
f 32//4 30//4 34//4 36//4
f 27//3 28//3 32//3 31//3
f 28//3 26//3 30//3 32//3
f 26//3 25//3 29//3 30//3
f 34//3 33//3 35//3 36//3
f 30//1 29//1 33//1 34//1
f 29//2 31//2 35//2 33//2
f 31//6 32//6 36//6 35//6
f 40//3 38//3 45//3 46//3
f 14//5 10//5 38//5 40//5
f 13//6 14//6 40//6 39//6
f 38//5 10//5 82//5 84//5
f 42//6 41//6 43//6 44//6
f 38//2 37//2 41//2 42//2
f 37//5 39//5 43//5 41//5
f 39//4 40//4 44//4 43//4
f 48//4 46//4 50//4 52//4
f 44//3 40//3 46//3 48//3
f 38//3 42//3 47//3 45//3
f 42//3 44//3 48//3 47//3
f 49//4 51//4 55//4 53//4
f 47//3 48//3 52//3 51//3
f 45//2 47//2 51//2 49//2
f 49//3 53//3 61//3 59//3
f 54//3 53//3 55//3 56//3
f 50//3 46//3 58//3 60//3
f 52//2 50//2 54//2 56//2
f 51//1 52//1 56//1 55//1
f 61//3 62//3 68//3 67//3
f 62//6 60//6 66//6 68//6
f 45//3 49//3 59//3 57//3
f 54//3 50//3 60//3 62//3
f 46//3 45//3 57//3 58//3
f 53//3 54//3 62//3 61//3
f 69//6 71//6 75//6 73//6
f 65//4 67//4 71//4 69//4
f 60//3 58//3 64//3 66//3
f 58//5 57//5 63//5 64//5
f 59//6 61//6 67//6 65//6
f 57//3 59//3 65//3 63//3
f 76//2 74//2 78//2 80//2
f 68//2 66//2 70//2 72//2
f 67//3 68//3 72//3 71//3
f 72//6 70//6 74//6 76//6
f 71//3 72//3 76//3 75//3
f 78//6 77//6 79//6 80//6
f 75//3 76//3 80//3 79//3
f 73//4 75//4 79//4 77//4
f 63//3 69//3 73//3 77//3 78//3 74//3 70//3 66//3 64//3
f 81//5 83//5 87//5 85//5
f 37//6 38//6 84//6 83//6
f 9//5 37//5 83//5 81//5
f 10//6 9//6 81//6 82//6
f 86//6 85//6 87//6 88//6
f 82//2 81//2 85//2 86//2
f 88//3 84//3 90//3 92//3
f 83//4 84//4 88//4 87//4
f 86//3 88//3 92//3 91//3
f 84//3 82//3 89//3 90//3
f 82//3 86//3 91//3 89//3
f 105//7 106//7 107//7 108//7 109//7 110//7 111//7 112//7 113//7 91//7 92//7
f 108//8 107//8 139//8 140//8
f 97//9 98//9 99//9 100//9 101//9 102//9 103//9 104//9 105//9 92//9 90//9
f 121//10 122//10 123//10 124//10 93//10 94//10 95//10 96//10 97//10 90//10 89//10
f 113//11 114//11 115//11 116//11 117//11 118//11 119//11 120//11 121//11 89//11 91//11
f 125//12 126//12 156//12 155//12 154//12 153//12 152//12 151//12 150//12 149//12 148//12 147//12 146//12 145//12 144//12 143//12 142//12 141//12 140//12 139//12 138//12 137//12 136//12 135//12 134//12 133//12 132//12 131//12 130//12 129//12 128//12 127//12
f 95//13 94//13 125//13 127//13
f 122//14 121//14 153//14 154//14
f 109//15 108//15 140//15 141//15
f 96//16 95//16 127//16 128//16
f 123//17 122//17 154//17 155//17
f 110//18 109//18 141//18 142//18
f 97//19 96//19 128//19 129//19
f 124//20 123//20 155//20 156//20
f 111//21 110//21 142//21 143//21
f 98//22 97//22 129//22 130//22
f 93//23 124//23 156//23 126//23
f 112//24 111//24 143//24 144//24
f 99//25 98//25 130//25 131//25
f 113//26 112//26 144//26 145//26
f 100//27 99//27 131//27 132//27
f 114//28 113//28 145//28 146//28
f 101//29 100//29 132//29 133//29
f 115//30 114//30 146//30 147//30
f 102//31 101//31 133//31 134//31
f 116//32 115//32 147//32 148//32
f 103//33 102//33 134//33 135//33
f 117//34 116//34 148//34 149//34
f 104//35 103//35 135//35 136//35
f 118//36 117//36 149//36 150//36
f 105//37 104//37 136//37 137//37
f 119//38 118//38 150//38 151//38
f 106//39 105//39 137//39 138//39
f 120//40 119//40 151//40 152//40
f 107//41 106//41 138//41 139//41
f 94//42 93//42 126//42 125//42
f 121//43 120//43 152//43 153//43
f 170//4 168//4 164//4 163//4
f 174//3 172//3 160//3 159//3
f 172//4 174//4 173//4 171//4
f 174//3 178//3 177//3 173//3
f 178//2 176//2 175//2 177//2
f 176//5 172//5 171//5 175//5
f 176//3 178//3 158//3 157//3
f 171//6 173//6 177//6 175//6
f 158//1 159//1 167//1 168//1
f 172//3 176//3 157//3 160//3
f 169//3 170//3 163//3 166//3
f 167//2 169//2 166//2 165//2
f 168//5 167//5 165//5 164//5
f 163//1 164//1 165//1 166//1
f 160//1 157//1 170//1 169//1
f 157//1 158//1 168//1 170//1
f 159//1 160//1 169//1 167//1
f 178//3 174//3 159//3 158//3
l 162 180
l 179 161
