# Blender v2.76 (sub 0) OBJ File: 'cd_dvd.blend'
# www.blender.org
mtllib cd_dvd.mtl
o Cube
v -6.749999 -0.750000 -6.750000
v 6.750000 -0.750000 -6.750000
v 6.749998 -0.750000 6.750001
v -6.750003 -0.750000 6.749997
v -6.749996 0.750000 -6.750004
v 6.750004 0.750000 -6.749995
v 6.749997 0.750000 6.750003
v -6.750000 0.750000 6.749999
v -5.981164 0.747160 0.076468
v -5.866265 0.747160 1.243040
v -5.525989 0.747160 2.364783
v -4.973410 0.747160 3.398586
v -4.229763 0.747160 4.304722
v -3.323626 0.747160 5.048369
v -2.289824 0.747160 5.600948
v -1.168081 0.747160 5.941225
v -0.001509 0.747160 6.056122
v 1.165064 0.747160 5.941226
v 2.286806 0.747160 5.600949
v 3.320610 0.747160 5.048370
v 4.226746 0.747160 4.304723
v 4.970393 0.747160 3.398587
v 5.522973 0.747160 2.364783
v 5.863250 0.747160 1.243040
v 5.978147 0.747160 0.076467
v 5.863248 0.747160 -1.090106
v 5.522971 0.747160 -2.211849
v 4.970392 0.747160 -3.245652
v 4.226745 0.747160 -4.151789
v 3.320608 0.747160 -4.895435
v 2.286803 0.747160 -5.448015
v 1.165060 0.747160 -5.788291
v -0.001513 0.747160 -5.903187
v -1.168086 0.747160 -5.788289
v -2.289829 0.747160 -5.448010
v -3.323632 0.747160 -4.895430
v -4.229767 0.747160 -4.151782
v -4.973414 0.747160 -3.245644
v -5.525992 0.747160 -2.211839
v -5.866268 0.747160 -1.090096
v -5.866265 0.747160 1.243040
v -5.981164 0.747160 0.076468
v -5.525989 0.747160 2.364783
v -4.973410 0.747160 3.398586
v -4.229763 0.747160 4.304722
v -3.323626 0.747160 5.048369
v -2.289824 0.747160 5.600948
v -1.168081 0.747160 5.941225
v -0.001509 0.747160 6.056122
v 1.165064 0.747160 5.941226
v 2.286806 0.747160 5.600949
v 3.320610 0.747160 5.048370
v 4.226746 0.747160 4.304723
v 4.970393 0.747160 3.398587
v 5.522973 0.747160 2.364783
v 5.863250 0.747160 1.243040
v 5.978147 0.747160 0.076467
v 5.863248 0.747160 -1.090106
v 5.522971 0.747160 -2.211849
v 4.970392 0.747160 -3.245652
v 4.226745 0.747160 -4.151789
v 3.320608 0.747160 -4.895435
v 2.286803 0.747160 -5.448015
v 1.165060 0.747160 -5.788291
v -0.001513 0.747160 -5.903187
v -1.168086 0.747160 -5.788289
v -2.289829 0.747160 -5.448010
v -3.323632 0.747160 -4.895430
v -4.229767 0.747160 -4.151782
v -4.973414 0.747160 -3.245644
v -5.525992 0.747160 -2.211839
v -5.866268 0.747160 -1.090096
v -5.866265 0.747160 1.243040
v -5.981164 0.747160 0.076468
v -5.525989 0.747160 2.364783
v -4.973410 0.747160 3.398586
v -4.229763 0.747160 4.304722
v -3.323626 0.747160 5.048369
v -2.289824 0.747160 5.600948
v -1.168081 0.747160 5.941225
v -0.001509 0.747160 6.056122
v 1.165064 0.747160 5.941226
v 2.286806 0.747160 5.600949
v 3.320610 0.747160 5.048370
v 4.226746 0.747160 4.304723
v 4.970393 0.747160 3.398587
v 5.522973 0.747160 2.364783
v 5.863250 0.747160 1.243040
v 5.978147 0.747160 0.076467
v 5.863248 0.747160 -1.090106
v 5.522971 0.747160 -2.211849
v 4.970392 0.747160 -3.245652
v 4.226745 0.747160 -4.151789
v 3.320608 0.747160 -4.895435
v 2.286803 0.747160 -5.448015
v 1.165060 0.747160 -5.788291
v -0.001513 0.747160 -5.903187
v -1.168086 0.747160 -5.788289
v -2.289829 0.747160 -5.448010
v -3.323632 0.747160 -4.895430
v -4.229767 0.747160 -4.151782
v -4.973414 0.747160 -3.245644
v -5.525992 0.747160 -2.211839
v -5.866268 0.747160 -1.090096
v -5.866265 0.615917 1.243040
v -5.981164 0.615917 0.076468
v -5.525989 0.615917 2.364783
v -4.973410 0.615917 3.398586
v -4.229763 0.615917 4.304722
v -3.323626 0.615917 5.048369
v -2.289824 0.615917 5.600948
v -1.168081 0.615917 5.941225
v -0.001509 0.615917 6.056122
v 1.165064 0.615917 5.941226
v 2.286806 0.615917 5.600949
v 3.320610 0.615917 5.048370
v 4.226746 0.615917 4.304723
v 4.970393 0.615917 3.398587
v 5.522973 0.615917 2.364783
v 5.863250 0.615917 1.243040
v 5.978147 0.615917 0.076467
v 5.863248 0.615917 -1.090106
v 5.522971 0.615917 -2.211849
v 4.970392 0.615917 -3.245652
v 4.226745 0.615917 -4.151789
v 3.320608 0.615917 -4.895435
v 2.286803 0.615917 -5.448015
v 1.165060 0.615917 -5.788291
v -0.001513 0.615917 -5.903187
v -1.168086 0.615917 -5.788289
v -2.289829 0.615917 -5.448010
v -3.323632 0.615917 -4.895430
v -4.229767 0.615917 -4.151782
v -4.973414 0.615917 -3.245644
v -5.525992 0.615917 -2.211839
v -5.866268 0.615917 -1.090096
v -5.656464 0.615917 1.201308
v -5.767252 0.615917 0.076468
v -5.328361 0.615917 2.282922
v -4.795549 0.615917 3.279743
v -4.078505 0.615917 4.153464
v -3.204783 0.615917 4.870508
v -2.207963 0.615917 5.403320
v -1.126349 0.615917 5.731424
v -0.001509 0.615917 5.842211
v 1.123331 0.615917 5.731425
v 2.204945 0.615917 5.403321
v 3.201767 0.615917 4.870509
v 4.075488 0.615917 4.153465
v 4.792532 0.615917 3.279744
v 5.325345 0.615917 2.282922
v 5.653448 0.615917 1.201308
v 5.764235 0.615917 0.076467
v 5.653447 0.615917 -1.048374
v 5.325342 0.615917 -2.129989
v 4.792531 0.615917 -3.126809
v 4.075487 0.615917 -4.000530
v 3.201765 0.615917 -4.717575
v 2.204943 0.615917 -5.250386
v 1.123328 0.615917 -5.578490
v -0.001513 0.615917 -5.689276
v -1.126354 0.615917 -5.578487
v -2.207968 0.615917 -5.250382
v -3.204789 0.615917 -4.717569
v -4.078508 0.615917 -4.000524
v -4.795553 0.615917 -3.126801
v -5.328364 0.615917 -2.129979
v -5.656466 0.615917 -1.048365
v -5.656464 0.746975 1.201308
v -5.767252 0.746975 0.076468
v -5.328361 0.746975 2.282922
v -4.795549 0.746975 3.279743
v -4.078505 0.746975 4.153464
v -3.204783 0.746975 4.870508
v -2.207963 0.746975 5.403320
v -1.126349 0.746975 5.731424
v -0.001509 0.746975 5.842211
v 1.123331 0.746975 5.731425
v 2.204945 0.746975 5.403321
v 3.201767 0.746975 4.870509
v 4.075488 0.746975 4.153465
v 4.792532 0.746975 3.279744
v 5.325345 0.746975 2.282922
v 5.653448 0.746975 1.201308
v 5.764235 0.746975 0.076467
v 5.653447 0.746975 -1.048374
v 5.325342 0.746975 -2.129989
v 4.792531 0.746975 -3.126809
v 4.075487 0.746975 -4.000530
v 3.201765 0.746975 -4.717575
v 2.204943 0.746975 -5.250386
v 1.123328 0.746975 -5.578490
v -0.001513 0.746975 -5.689276
v -1.126354 0.746975 -5.578487
v -2.207968 0.746975 -5.250382
v -3.204789 0.746975 -4.717569
v -4.078508 0.746975 -4.000524
v -4.795553 0.746975 -3.126801
v -5.328364 0.746975 -2.129979
v -5.656466 0.746975 -1.048365
v -5.981028 -0.122205 -6.750000
v 5.981030 -0.122205 -6.750000
v -5.981025 0.122205 -6.750004
v 5.981033 0.122205 -6.749996
v -5.981028 -0.122205 -6.750000
v 5.981030 -0.122205 -6.750000
v -5.981025 0.122205 -6.750004
v 5.981033 0.122205 -6.749996
v -5.981028 -0.122205 -6.750000
v 5.981030 -0.122205 -6.750000
v -5.981025 0.122205 -6.750004
v 5.981033 0.122205 -6.749996
v -5.981029 -0.122211 -3.265796
v 5.981028 -0.122211 -3.265795
v -5.981026 0.122199 -3.265799
v 5.981031 0.122199 -3.265791
vt 0.999900 0.999900
vt 0.000100 0.999900
vt 0.000100 0.000100
vt 0.999900 0.000100
vt 0.496258 0.399589
vt 0.833079 0.145538
vt 0.661213 0.298545
vt 0.562228 0.367962
vt 0.402041 0.437004
vt 0.431706 0.529410
vt 0.502169 0.495764
vt 0.916591 0.749555
vt 0.254880 0.715949
vt 0.098580 0.895431
vt 0.194186 0.178246
vt 0.224741 0.267373
vt 0.243052 0.330000
vt 0.264336 0.381902
vt 0.259450 0.443424
vt 0.267901 0.502903
vt 0.261694 0.559844
vt 0.263484 0.629616
vt 0.900423 0.001661
vt 0.734834 0.181150
vt 0.649702 0.198762
vt 0.580140 0.204242
vt 0.524385 0.216415
vt 0.464544 0.214273
vt 0.403980 0.225872
vt 0.352068 0.208181
vt 0.282971 0.199459
vt 0.999905 0.895431
vt 0.796297 0.717135
vt 0.765845 0.628399
vt 0.747125 0.566481
vt 0.736183 0.503725
vt 0.713446 0.451664
vt 0.722984 0.394514
vt 0.719467 0.331780
vt 0.723862 0.268000
vt 0.339215 0.696723
vt 0.401531 0.685871
vt 0.467027 0.689246
vt 0.525474 0.682431
vt 0.585912 0.669828
vt 0.638131 0.687550
vt 0.707346 0.696175
vt 0.642998 0.196985
vt 0.576254 0.199483
vt 0.726213 0.336482
vt 0.729200 0.396057
vt 0.735416 0.397601
vt 0.732957 0.341185
vt 0.256574 0.556528
vt 0.261013 0.623212
vt 0.719723 0.197496
vt 0.259575 0.500539
vt 0.725907 0.274143
vt 0.253137 0.444021
vt 0.254681 0.387072
vt 0.238059 0.336197
vt 0.724244 0.449905
vt 0.224064 0.275201
vt 0.741959 0.500224
vt 0.214009 0.196333
vt 0.752948 0.559359
vt 0.291463 0.197637
vt 0.766599 0.620492
vt 0.357011 0.202968
vt 0.468873 0.694844
vt 0.525667 0.689249
vt 0.776428 0.699192
vt 0.408282 0.215501
vt 0.406911 0.692912
vt 0.698858 0.698067
vt 0.464492 0.207873
vt 0.345461 0.698241
vt 0.633234 0.692814
vt 0.521116 0.208335
vt 0.269414 0.699388
vt 0.581810 0.680390
vt 0.747735 0.496724
vt 0.758769 0.552235
vt 0.713394 0.545304
vt 0.707775 0.498109
vt 0.233066 0.342397
vt 0.245025 0.392242
vt 0.735041 0.448144
vt 0.223385 0.283027
vt 0.233831 0.214420
vt 0.299955 0.195815
vt 0.767355 0.612581
vt 0.361954 0.197753
vt 0.470717 0.700443
vt 0.525862 0.696067
vt 0.756561 0.681250
vt 0.412584 0.205131
vt 0.412291 0.699953
vt 0.690369 0.699959
vt 0.464440 0.201474
vt 0.351706 0.699759
vt 0.628336 0.698078
vt 0.517846 0.200255
vt 0.283943 0.682821
vt 0.577709 0.690952
vt 0.572368 0.194725
vt 0.258544 0.616809
vt 0.636295 0.195209
vt 0.251455 0.553211
vt 0.704611 0.213842
vt 0.251247 0.498178
vt 0.727954 0.280287
vt 0.246824 0.444616
vt 0.700621 0.631665
vt 0.662672 0.649622
vt 0.654294 0.641116
vt 0.688280 0.620699
vt 0.327560 0.246266
vt 0.289452 0.264065
vt 0.713755 0.591294
vt 0.372997 0.241211
vt 0.474142 0.656979
vt 0.523146 0.656295
vt 0.418759 0.241471
vt 0.424575 0.654030
vt 0.466004 0.240371
vt 0.376569 0.646652
vt 0.617214 0.654589
vt 0.514092 0.240536
vt 0.333483 0.627413
vt 0.571078 0.654393
vt 0.562303 0.241758
vt 0.309574 0.586313
vt 0.610926 0.249042
vt 0.297414 0.538503
vt 0.654121 0.268691
vt 0.291290 0.490342
vt 0.677276 0.309769
vt 0.286143 0.442076
vt 0.688735 0.356698
vt 0.282224 0.394445
vt 0.695493 0.404745
vt 0.276843 0.348832
vt 0.700243 0.451791
vt 0.276278 0.303873
vt 0.568427 0.650692
vt 0.522456 0.652313
vt 0.521140 0.614338
vt 0.563099 0.613179
vt 0.466438 0.244160
vt 0.421402 0.245037
vt 0.383586 0.637712
vt 0.428736 0.647858
vt 0.612481 0.648867
vt 0.512375 0.244929
vt 0.343751 0.615986
vt 0.558450 0.248187
vt 0.317850 0.578466
vt 0.603837 0.258099
vt 0.303440 0.534087
vt 0.643662 0.280054
vt 0.295558 0.488213
vt 0.669016 0.317567
vt 0.290059 0.442098
vt 0.683077 0.361332
vt 0.286215 0.396565
vt 0.691342 0.406774
vt 0.282971 0.352939
vt 0.697150 0.451831
vt 0.285654 0.311098
vt 0.703316 0.496411
vt 0.301720 0.275137
vt 0.706998 0.541084
vt 0.335951 0.254873
vt 0.704217 0.583997
vt 0.377780 0.246941
vt 0.475664 0.652020
vt 0.480337 0.612922
vt 0.440896 0.608124
vt 0.405261 0.598113
vt 0.375953 0.580292
vt 0.355107 0.553191
vt 0.341943 0.518593
vt 0.333577 0.479595
vt 0.327692 0.438687
vt 0.323797 0.397368
vt 0.320437 0.360000
vt 0.322649 0.328450
vt 0.334516 0.304893
vt 0.357825 0.290333
vt 0.389664 0.283533
vt 0.426793 0.281328
vt 0.466785 0.281304
vt 0.507443 0.283140
vt 0.546641 0.287827
vt 0.582168 0.297735
vt 0.611321 0.315574
vt 0.631878 0.342806
vt 0.645232 0.377167
vt 0.654101 0.415804
vt 0.660647 0.456174
vt 0.665890 0.496197
vt 0.668601 0.533895
vt 0.666147 0.566706
vt 0.654964 0.591632
vt 0.632592 0.606151
vt 0.601054 0.612090
vt 0.698827 0.580196
vt 0.591312 0.528526
vt 0.593171 0.527171
vt 0.693755 0.575800
vt 0.564697 0.368625
vt 0.658349 0.303262
vt 0.654709 0.308406
vt 0.567314 0.369401
vt 0.595237 0.525873
vt 0.615167 0.425640
vt 0.617276 0.473229
vt 0.688752 0.571209
vt 0.628435 0.471251
vt 0.626945 0.425582
vn 0.000000 -1.000000 0.000000
vn 0.000000 0.000000 -1.000000
vn 1.000000 -0.000000 0.000000
vn -0.000000 -0.000000 1.000000
vn -1.000000 0.000000 -0.000000
vn 0.000000 1.000000 -0.001900
vn -0.001800 1.000000 -0.000000
vn -0.000000 1.000000 0.001700
vn 0.001800 1.000000 0.000000
vn 0.290300 0.000000 0.956900
vn 0.000000 1.000000 0.000000
vn -0.773000 0.000000 -0.634400
vn 0.471400 0.000000 0.881900
vn -0.881900 0.000000 -0.471400
vn 0.995200 0.000000 -0.098000
vn 0.634400 0.000000 0.773000
vn -0.956900 0.000000 -0.290300
vn 0.956900 0.000000 -0.290300
vn 0.773000 0.000000 0.634400
vn -0.995200 0.000000 -0.098000
vn 0.881900 0.000000 -0.471400
vn 0.881900 0.000000 0.471400
vn -0.995200 0.000000 0.098000
vn 0.773000 0.000000 -0.634400
vn 0.956900 0.000000 0.290300
vn -0.956900 0.000000 0.290300
vn 0.634400 0.000000 -0.773000
vn 0.995200 0.000000 0.098000
vn -0.881900 0.000000 0.471400
vn 0.471400 0.000000 -0.881900
vn -0.773000 0.000000 0.634400
vn 0.290300 0.000000 -0.956900
vn -0.634400 0.000000 0.773000
vn 0.098000 0.000000 -0.995200
vn -0.471400 0.000000 0.881900
vn -0.098000 0.000000 -0.995200
vn -0.290300 0.000000 0.956900
vn -0.290300 0.000000 -0.956900
vn -0.098000 0.000000 0.995200
vn -0.471400 0.000000 -0.881900
vn 0.098000 0.000000 0.995200
vn -0.634400 0.000000 -0.773000
usemtl Material
s off
f 1/1/1 2/2/1 3/3/1 4/4/1
f 6/5/2 2/6/2 202/7/2 204/8/2
f 2/6/3 6/5/3 7/9/3 3/3/3
f 3/3/4 7/9/4 8/10/4 4/2/4
f 5/11/5 1/12/5 4/2/5 8/10/5
f 13/13/6 8/14/6 7/3/6 21/15/6 20/16/6 19/17/6 18/18/6 17/19/6 16/20/6 15/21/6 14/22/6
f 21/15/7 7/3/7 6/23/7 29/24/7 28/25/7 27/26/7 26/27/7 25/28/7 24/29/7 23/30/7 22/31/7
f 29/24/8 6/23/8 5/32/8 37/33/8 36/34/8 35/35/8 34/36/8 33/37/8 32/38/8 31/39/8 30/40/8
f 37/33/9 5/32/9 8/14/9 13/13/9 12/41/9 11/42/9 10/43/9 9/44/9 40/45/9 39/46/9 38/47/9
f 27/26/4 28/25/4 60/48/4 59/49/4
f 63/50/4 64/51/4 96/52/4 95/53/4
f 14/22/4 15/21/4 47/54/4 46/55/4
f 28/25/4 29/24/4 61/56/4 60/48/4
f 15/21/4 16/20/4 48/57/4 47/54/4
f 29/24/4 30/40/4 62/58/4 61/56/4
f 16/20/4 17/19/4 49/59/4 48/57/4
f 30/40/4 31/39/4 63/50/4 62/58/4
f 17/19/4 18/18/4 50/60/4 49/59/4
f 31/39/4 32/38/4 64/51/4 63/50/4
f 18/18/4 19/17/4 51/61/4 50/60/4
f 32/38/4 33/37/4 65/62/4 64/51/4
f 19/17/4 20/16/4 52/63/4 51/61/4
f 33/37/4 34/36/4 66/64/4 65/62/4
f 20/16/4 21/15/4 53/65/4 52/63/4
f 34/36/4 35/35/4 67/66/4 66/64/4
f 21/15/4 22/31/4 54/67/4 53/65/4
f 35/35/4 36/34/4 68/68/4 67/66/4
f 22/31/4 23/30/4 55/69/4 54/67/4
f 9/44/4 10/43/4 41/70/4 42/71/4
f 36/34/4 37/33/4 69/72/4 68/68/4
f 23/30/4 24/29/4 56/73/4 55/69/4
f 10/43/4 11/42/4 43/74/4 41/70/4
f 37/33/4 38/47/4 70/75/4 69/72/4
f 24/29/4 25/28/4 57/76/4 56/73/4
f 11/42/4 12/41/4 44/77/4 43/74/4
f 38/47/4 39/46/4 71/78/4 70/75/4
f 25/28/4 26/27/4 58/79/4 57/76/4
f 12/41/4 13/13/4 45/80/4 44/77/4
f 39/46/4 40/45/4 72/81/4 71/78/4
f 26/27/4 27/26/4 59/49/4 58/79/4
f 13/13/4 14/22/4 46/55/4 45/80/4
f 40/45/4 9/44/4 42/71/4 72/81/4
f 98/82/10 99/83/10 131/84/10 130/85/10
f 50/60/4 51/61/4 83/86/4 82/87/4
f 64/51/4 65/62/4 97/88/4 96/52/4
f 51/61/4 52/63/4 84/89/4 83/86/4
f 65/62/4 66/64/4 98/82/4 97/88/4
f 52/63/4 53/65/4 85/90/4 84/89/4
f 66/64/4 67/66/4 99/83/4 98/82/4
f 53/65/4 54/67/4 86/91/4 85/90/4
f 67/66/4 68/68/4 100/92/4 99/83/4
f 54/67/4 55/69/4 87/93/4 86/91/4
f 42/71/4 41/70/4 73/94/4 74/95/4
f 68/68/4 69/72/4 101/96/4 100/92/4
f 55/69/4 56/73/4 88/97/4 87/93/4
f 41/70/4 43/74/4 75/98/4 73/94/4
f 69/72/4 70/75/4 102/99/4 101/96/4
f 56/73/4 57/76/4 89/100/4 88/97/4
f 43/74/4 44/77/4 76/101/4 75/98/4
f 70/75/4 71/78/4 103/102/4 102/99/4
f 57/76/4 58/79/4 90/103/4 89/100/4
f 44/77/4 45/80/4 77/104/4 76/101/4
f 71/78/4 72/81/4 104/105/4 103/102/4
f 58/79/4 59/49/4 91/106/4 90/103/4
f 45/80/4 46/55/4 78/107/4 77/104/4
f 72/81/4 42/71/4 74/95/4 104/105/4
f 59/49/4 60/48/4 92/108/4 91/106/4
f 46/55/4 47/54/4 79/109/4 78/107/4
f 60/48/4 61/56/4 93/110/4 92/108/4
f 47/54/4 48/57/4 80/111/4 79/109/4
f 61/56/4 62/58/4 94/112/4 93/110/4
f 48/57/4 49/59/4 81/113/4 80/111/4
f 62/58/4 63/50/4 95/53/4 94/112/4
f 49/59/4 50/60/4 82/87/4 81/113/4
f 133/114/11 134/115/11 166/116/11 165/117/11
f 85/90/12 86/91/12 118/118/12 117/119/12
f 99/83/13 100/92/13 132/120/13 131/84/13
f 86/91/14 87/93/14 119/121/14 118/118/14
f 74/95/15 73/94/15 105/122/15 106/123/15
f 100/92/16 101/96/16 133/114/16 132/120/16
f 87/93/17 88/97/17 120/124/17 119/121/17
f 73/94/18 75/98/18 107/125/18 105/122/18
f 101/96/19 102/99/19 134/115/19 133/114/19
f 88/97/20 89/100/20 121/126/20 120/124/20
f 75/98/21 76/101/21 108/127/21 107/125/21
f 102/99/22 103/102/22 135/128/22 134/115/22
f 89/100/23 90/103/23 122/129/23 121/126/23
f 76/101/24 77/104/24 109/130/24 108/127/24
f 103/102/25 104/105/25 136/131/25 135/128/25
f 90/103/26 91/106/26 123/132/26 122/129/26
f 77/104/27 78/107/27 110/133/27 109/130/27
f 104/105/28 74/95/28 106/123/28 136/131/28
f 91/106/29 92/108/29 124/134/29 123/132/29
f 78/107/30 79/109/30 111/135/30 110/133/30
f 92/108/31 93/110/31 125/136/31 124/134/31
f 79/109/32 80/111/32 112/137/32 111/135/32
f 93/110/33 94/112/33 126/138/33 125/136/33
f 80/111/34 81/113/34 113/139/34 112/137/34
f 94/112/35 95/53/35 127/140/35 126/138/35
f 81/113/36 82/87/36 114/141/36 113/139/36
f 95/53/37 96/52/37 128/142/37 127/140/37
f 82/87/38 83/86/38 115/143/38 114/141/38
f 96/52/39 97/88/39 129/144/39 128/142/39
f 83/86/40 84/89/40 116/145/40 115/143/40
f 97/88/41 98/82/41 130/85/41 129/144/41
f 84/89/42 85/90/42 117/119/42 116/145/42
f 168/146/20 138/147/20 170/148/20 200/149/20
f 120/124/11 121/126/11 153/150/11 152/151/11
f 107/125/11 108/127/11 140/152/11 139/153/11
f 134/115/11 135/128/11 167/154/11 166/116/11
f 121/126/11 122/129/11 154/155/11 153/150/11
f 108/127/11 109/130/11 141/156/11 140/152/11
f 135/128/11 136/131/11 168/146/11 167/154/11
f 122/129/11 123/132/11 155/157/11 154/155/11
f 109/130/11 110/133/11 142/158/11 141/156/11
f 136/131/11 106/123/11 138/147/11 168/146/11
f 123/132/11 124/134/11 156/159/11 155/157/11
f 110/133/11 111/135/11 143/160/11 142/158/11
f 124/134/11 125/136/11 157/161/11 156/159/11
f 111/135/11 112/137/11 144/162/11 143/160/11
f 125/136/11 126/138/11 158/163/11 157/161/11
f 112/137/11 113/139/11 145/164/11 144/162/11
f 126/138/11 127/140/11 159/165/11 158/163/11
f 113/139/11 114/141/11 146/166/11 145/164/11
f 127/140/11 128/142/11 160/167/11 159/165/11
f 114/141/11 115/143/11 147/168/11 146/166/11
f 128/142/11 129/144/11 161/169/11 160/167/11
f 115/143/11 116/145/11 148/170/11 147/168/11
f 129/144/11 130/85/11 162/171/11 161/169/11
f 116/145/11 117/119/11 149/172/11 148/170/11
f 130/85/11 131/84/11 163/173/11 162/171/11
f 117/119/11 118/118/11 150/174/11 149/172/11
f 131/84/11 132/120/11 164/175/11 163/173/11
f 118/118/11 119/121/11 151/176/11 150/174/11
f 106/123/11 105/122/11 137/177/11 138/147/11
f 132/120/11 133/114/11 165/117/11 164/175/11
f 119/121/11 120/124/11 152/151/11 151/176/11
f 105/122/11 107/125/11 139/153/11 137/177/11
f 169/178/11 171/179/11 172/180/11 173/181/11 174/182/11 175/183/11 176/184/11 177/185/11 178/186/11 179/187/11 180/188/11 181/189/11 182/190/11 183/191/11 184/192/11 185/193/11 186/194/11 187/195/11 188/196/11 189/197/11 190/198/11 191/199/11 192/200/11 193/201/11 194/202/11 195/203/11 196/204/11 197/205/11 198/206/11 199/207/11 200/149/11 170/148/11
f 155/157/21 156/159/21 188/196/21 187/195/21
f 142/158/35 143/160/35 175/183/35 174/182/35
f 156/159/24 157/161/24 189/197/24 188/196/24
f 143/160/37 144/162/37 176/184/37 175/183/37
f 157/161/27 158/163/27 190/198/27 189/197/27
f 144/162/39 145/164/39 177/185/39 176/184/39
f 158/163/30 159/165/30 191/199/30 190/198/30
f 145/164/41 146/166/41 178/186/41 177/185/41
f 159/165/32 160/167/32 192/200/32 191/199/32
f 146/166/10 147/168/10 179/187/10 178/186/10
f 160/167/34 161/169/34 193/201/34 192/200/34
f 147/168/13 148/170/13 180/188/13 179/187/13
f 161/169/36 162/171/36 194/202/36 193/201/36
f 148/170/16 149/172/16 181/189/16 180/188/16
f 162/171/38 163/173/38 195/203/38 194/202/38
f 149/172/19 150/174/19 182/190/19 181/189/19
f 163/173/40 164/175/40 196/204/40 195/203/40
f 150/174/22 151/176/22 183/191/22 182/190/22
f 138/147/23 137/177/23 169/178/23 170/148/23
f 164/175/42 165/117/42 197/205/42 196/204/42
f 151/176/25 152/151/25 184/192/25 183/191/25
f 137/177/26 139/153/26 171/179/26 169/178/26
f 165/117/12 166/116/12 198/206/12 197/205/12
f 152/151/28 153/150/28 185/193/28 184/192/28
f 139/153/29 140/152/29 172/180/29 171/179/29
f 166/116/14 167/154/14 199/207/14 198/206/14
f 153/150/15 154/155/15 186/194/15 185/193/15
f 140/152/31 141/156/31 173/181/31 172/180/31
f 167/154/17 168/146/17 200/149/17 199/207/17
f 154/155/18 155/157/18 187/195/18 186/194/18
f 141/156/33 142/158/33 174/182/33 173/181/33
f 201/208/4 203/209/4 207/210/4 205/211/4
f 1/12/2 5/11/2 203/209/2 201/208/2
f 2/6/2 1/12/2 201/208/2 202/7/2
f 5/11/2 6/5/2 204/8/2 203/209/2
f 208/212/4 206/213/4 210/214/4 212/215/4
f 204/8/4 202/7/4 206/213/4 208/212/4
f 202/7/4 201/208/4 205/211/4 206/213/4
f 203/209/4 204/8/4 208/212/4 207/210/4
f 211/216/1 212/215/1 216/217/1 215/218/1
f 206/213/4 205/211/4 209/219/4 210/214/4
f 207/210/4 208/212/4 212/215/4 211/216/4
f 205/211/4 207/210/4 211/216/4 209/219/4
f 213/220/2 215/218/2 216/217/2 214/221/2
f 209/219/3 211/216/3 215/218/3 213/220/3
f 212/215/5 210/214/5 214/221/5 216/217/5
f 210/214/11 209/219/11 213/220/11 214/221/11
