# Blender v2.76 (sub 0) OBJ File: 'cd_dvd.blend'
# www.blender.org
mtllib cd_dvd.mtl
o Cube
v -6.749999 -0.750000 -6.750000
v 6.750000 -0.750000 -6.750000
v 6.749998 -0.750000 6.750001
v -6.750003 -0.750000 6.749997
v -6.749996 0.750000 -6.750004
v 6.750004 0.750000 -6.749995
v 6.749997 0.750000 6.750003
v -6.750000 0.750000 6.749999
v -5.981028 -0.122205 -6.750000
v 5.981030 -0.122205 -6.750000
v -5.981025 0.122205 -6.750004
v 5.981033 0.122205 -6.749996
v -5.981028 -0.122205 -6.750000
v 5.981030 -0.122205 -6.750000
v -5.981025 0.122205 -6.750004
v 5.981033 0.122205 -6.749996
v -5.981028 -0.122205 -6.750000
v 5.981030 -0.122205 -6.750000
v -5.981025 0.122205 -6.750004
v 5.981033 0.122205 -6.749996
v -5.981029 -0.122211 -3.265796
v 5.981028 -0.122211 -3.265795
v -5.981026 0.122199 -3.265799
v 5.981031 0.122199 -3.265791
vt 0.999900 0.999900
vt 0.000100 0.999900
vt 0.000100 0.000100
vt 0.999900 0.000100
vt 0.496258 0.399589
vt 0.833079 0.145538
vt 0.661213 0.298545
vt 0.562228 0.367962
vt 0.402041 0.437004
vt 0.431706 0.529410
vt 0.502169 0.495764
vt 0.916591 0.749555
vt 0.698827 0.580196
vt 0.591312 0.528526
vt 0.593171 0.527171
vt 0.693755 0.575800
vt 0.564697 0.368625
vt 0.658349 0.303262
vt 0.654709 0.308406
vt 0.567314 0.369401
vt 0.595237 0.525873
vt 0.615167 0.425640
vt 0.617276 0.473229
vt 0.688752 0.571209
vt 0.628435 0.471251
vt 0.626945 0.425582
vn 0.000000 -1.000000 0.000000
vn 0.000000 0.000000 -1.000000
vn 1.000000 -0.000000 0.000000
vn -0.000000 -0.000000 1.000000
vn -1.000000 0.000000 -0.000000
vn -0.000000 1.000000 0.000000
usemtl Material
s off
f 1/1/1 2/2/1 3/3/1 4/4/1
f 6/5/2 2/6/2 10/7/2 12/8/2
f 2/6/3 6/5/3 7/9/3 3/3/3
f 3/3/4 7/9/4 8/10/4 4/2/4
f 5/11/5 1/12/5 4/2/5 8/10/5
f 9/13/4 11/14/4 15/15/4 13/16/4
f 1/12/2 5/11/2 11/14/2 9/13/2
f 2/6/2 1/12/2 9/13/2 10/7/2
f 5/11/2 6/5/2 12/8/2 11/14/2
f 16/17/4 14/18/4 18/19/4 20/20/4
f 12/8/4 10/7/4 14/18/4 16/17/4
f 10/7/4 9/13/4 13/16/4 14/18/4
f 11/14/4 12/8/4 16/17/4 15/15/4
f 19/21/1 20/20/1 24/22/1 23/23/1
f 14/18/4 13/16/4 17/24/4 18/19/4
f 15/15/4 16/17/4 20/20/4 19/21/4
f 13/16/4 15/15/4 19/21/4 17/24/4
f 21/25/2 23/23/2 24/22/2 22/26/2
f 17/24/3 19/21/3 23/23/3 21/25/3
f 20/20/5 18/19/5 22/26/5 24/22/5
f 18/19/6 17/24/6 21/25/6 22/26/6
usemtl Material_NONE
f 5/10/6 8/9/6 7/5/6 6/11/6
