# Blender v2.76 (sub 0) OBJ File: ''
# www.blender.org
mtllib laptop-bottom.mtl
o Cube
v 7.225592 -0.000001 -7.957572
v 7.225592 -0.000001 7.957572
v -3.629439 -0.000001 7.957571
v -3.629436 -0.000001 -7.957575
v 7.225595 0.000001 -7.957569
v 7.225589 0.000001 7.957577
v -3.629439 0.000001 7.957570
v -3.629437 0.000001 -7.957572
vt 0.992068 0.661750
vt 0.999910 0.682931
vt 0.000090 0.924788
vt 0.021937 0.907623
vt 0.000090 0.106757
vt 0.011587 0.134504
vt 0.977576 0.234926
vt 0.970563 0.254925
vt 0.000000 0.000000
vn 0.943600 -0.331200 0.000000
vn -0.000000 -0.635700 0.771900
vn -0.873100 -0.487600 -0.000000
vn 0.000000 0.854800 -0.519000
vn 0.000000 -1.000000 0.000000
vn 0.000000 1.000000 0.000000
usemtl Material
s off
f 1/1/1 5/2/1 6/3/1 2/4/1
f 2/4/2 6/3/2 7/5/2 3/6/2
f 3/6/3 7/5/3 8/7/3 4/8/3
f 5/2/4 1/1/4 4/8/4 8/7/4
usemtl Material
f 1/9/5 2/9/5 3/9/5 4/9/5
f 5/9/6 8/9/6 7/9/6 6/9/6
