# Blender v2.76 (sub 0) OBJ File: 'Motherboard.blend'
# www.blender.org
mtllib Motherboard.mtl
o Cube
v 9.789648 -0.754854 -6.741368
v 9.789648 -0.754854 9.658631
v -8.210353 -0.754854 9.658629
v -8.210348 -0.754854 -6.741371
v 9.789652 -0.588763 -6.741364
v 9.789642 -0.588763 9.658637
v -8.210355 -0.588763 9.658628
v -8.210351 -0.588763 -6.741368
v 9.789603 -0.588763 8.373803
v 9.789642 -0.588763 9.720790
v -8.210351 -0.588763 8.373803
v -8.210355 -0.588763 9.720790
v -1.361254 -0.588762 8.374011
v -1.361255 -0.588762 9.720998
v -3.155385 -0.588762 8.374011
v -3.155385 -0.588762 9.720998
v -1.628321 -0.243263 8.586277
v -2.888319 -0.439348 8.586277
v -1.628321 -0.439348 8.586277
v -3.021610 -0.128188 8.586277
v -1.495031 -0.128188 8.586277
v -3.021610 -0.513920 8.586277
v -1.495031 -0.513920 8.586277
v -3.021610 -0.128188 9.720998
v -1.495031 -0.128188 9.720998
v -3.021610 -0.513920 9.720998
v -1.495031 -0.513920 9.720998
v -3.155385 -0.053345 9.720998
v -3.155385 -0.053345 8.374011
v -1.361255 -0.053345 9.720998
v -1.361254 -0.053345 8.374011
v -3.155385 -0.588762 9.720998
v -3.155385 -0.588762 8.374011
v 9.789642 -0.588763 9.720790
v -1.361255 -0.588762 9.720998
v -1.361254 -0.588762 8.374011
v -4.164671 -0.588763 8.373803
v -4.142497 -0.588763 9.720790
v -5.131935 -0.588763 8.373803
v -5.131935 -0.588763 9.720790
v -4.142496 0.124133 8.373803
v -4.142497 0.124133 9.720790
v -5.131935 0.124133 8.373803
v -5.131935 0.124133 9.720790
v -4.251102 -0.588763 9.720790
v -4.714691 -0.588763 9.720790
v -4.251102 0.124133 9.720790
v -5.023330 0.124133 9.720790
v -4.251102 -0.391877 9.720790
v -5.023330 -0.391877 9.720790
v -4.251102 0.029326 9.720790
v -5.023330 0.029326 9.720790
v -4.251102 -0.391877 8.797472
v -5.023330 -0.391877 8.797472
v -4.251102 0.029326 8.797472
v -5.023330 0.029326 8.797472
v -4.251102 -0.588763 9.720790
v -5.023330 -0.588763 9.720790
v -4.251102 -0.391877 9.720790
v -5.023330 -0.391877 9.720790
v -4.251102 -0.391877 8.797472
v -5.023330 -0.391877 8.797472
v -4.477837 -0.588763 9.720790
v -4.796595 -0.588763 9.720790
v -4.477837 -0.391877 9.720790
v -4.796595 -0.391877 9.720790
v -4.477837 -0.391877 8.797472
v -4.796595 -0.391877 8.797472
v -4.477837 -0.449345 9.720790
v -4.796595 -0.449345 9.720790
v -4.477837 -0.449345 8.797472
v -4.796595 -0.449345 8.797472
v -4.570897 -0.449345 9.720790
v -4.703536 -0.449345 9.720790
v -4.570897 -0.449345 8.797472
v -4.703536 -0.449345 8.797472
v -4.570897 -0.519023 9.720790
v -4.703536 -0.519023 9.720790
v -4.570897 -0.519023 8.797472
v -4.703536 -0.519023 8.797472
v 6.457267 -0.588763 8.373803
v 6.457266 -0.588763 9.720790
v 5.777349 -0.588763 8.373803
v 5.777349 -0.588763 9.720790
v 6.457267 0.116209 8.373803
v 6.457266 0.116209 9.720790
v 5.777349 0.116209 8.373803
v 5.777349 0.116209 9.720790
v 6.269705 -0.317892 9.720790
v 5.964911 -0.317892 9.720790
v 6.269705 -0.001866 9.720790
v 5.964911 -0.001866 9.720790
v 6.114228 -0.296793 9.726335
v 6.087472 -0.294158 9.726323
v 6.061744 -0.286353 9.726290
v 6.038034 -0.273680 9.726233
v 6.017251 -0.256624 9.726159
v 6.000195 -0.235841 9.726068
v 5.987522 -0.212131 9.725965
v 5.979718 -0.186404 9.725853
v 5.977082 -0.159648 9.725736
v 5.979718 -0.132893 9.725618
v 5.987522 -0.107165 9.725507
v 6.000195 -0.083455 9.725403
v 6.017251 -0.062673 9.725312
v 6.038034 -0.045616 9.725238
v 6.061744 -0.032943 9.725182
v 6.087472 -0.025139 9.725148
v 6.114228 -0.022503 9.725137
v 6.140984 -0.025139 9.725148
v 6.166711 -0.032943 9.725182
v 6.190423 -0.045616 9.725238
v 6.211205 -0.062673 9.725312
v 6.228261 -0.083455 9.725403
v 6.240934 -0.107165 9.725507
v 6.248739 -0.132893 9.725618
v 6.251374 -0.159648 9.725736
v 6.248739 -0.186404 9.725853
v 6.240934 -0.212131 9.725965
v 6.228261 -0.235842 9.726068
v 6.211204 -0.256624 9.726159
v 6.190422 -0.273680 9.726233
v 6.166711 -0.286353 9.726290
v 6.140983 -0.294158 9.726323
v 6.087472 -0.299156 8.581871
v 6.114228 -0.301791 8.581882
v 6.061744 -0.291352 8.581838
v 6.038034 -0.278678 8.581781
v 6.017251 -0.261623 8.581707
v 6.000195 -0.240840 8.581616
v 5.987522 -0.217130 8.581512
v 5.979718 -0.191403 8.581401
v 5.977082 -0.164647 8.581284
v 5.979718 -0.137892 8.581166
v 5.987522 -0.112164 8.581055
v 6.000195 -0.088454 8.580951
v 6.017251 -0.067671 8.580860
v 6.038034 -0.050615 8.580786
v 6.061744 -0.037942 8.580729
v 6.087472 -0.030138 8.580696
v 6.114228 -0.027502 8.580685
v 6.140984 -0.030138 8.580696
v 6.166711 -0.037942 8.580729
v 6.190423 -0.050615 8.580786
v 6.211205 -0.067671 8.580860
v 6.228261 -0.088454 8.580951
v 6.240934 -0.112164 8.581055
v 6.248739 -0.137892 8.581166
v 6.251374 -0.164647 8.581284
v 6.248739 -0.191403 8.581401
v 6.240934 -0.217130 8.581512
v 6.228261 -0.240841 8.581616
v 6.211204 -0.261623 8.581707
v 6.190422 -0.278678 8.581781
v 6.166711 -0.291352 8.581838
v 6.140983 -0.299156 8.581871
v -1.288294 -0.484163 4.483529
v -1.288294 -0.484163 -0.274633
v 3.621388 -0.484163 -0.274633
v 3.621388 -0.484163 4.483529
v -3.812781 -0.601347 -0.808418
v -3.812781 -0.601347 5.633869
v -1.170601 -0.540626 4.369469
v -1.170601 -0.540626 -0.160573
v 3.503696 -0.540626 -0.160573
v 3.503696 -0.540626 4.369469
v 3.503696 -0.484163 -0.160573
v -1.170601 -0.484163 -0.160573
v 3.503696 -0.484163 4.369469
v -1.170601 -0.484163 4.369469
v 3.621388 -0.597890 4.483529
v 3.621388 -0.484163 4.483529
v 3.621388 -0.597890 -0.274633
v 3.621388 -0.484163 -0.274633
v -1.288294 -0.597890 4.483529
v -1.288294 -0.484163 4.483529
v -1.288294 -0.597890 -0.274633
v -1.288294 -0.484163 -0.274633
v -3.812781 -0.601347 -0.808418
v -3.812781 -0.781579 5.633869
v -1.361254 -0.588762 8.374011
v -4.072238 1.438396 4.987904
v -1.361255 -0.588762 9.720998
v 9.789642 -0.588763 9.720790
v -3.155385 -0.588762 8.374011
v -3.155385 -0.588762 9.720998
v -1.361254 -0.588762 8.374011
v -1.361255 -0.588762 9.720998
v 9.789642 -0.588763 9.720790
v -3.155385 -0.588762 8.374011
v -3.155385 -0.588762 9.720998
v -3.833858 -0.588763 9.720790
v -3.155385 -0.588762 9.720998
v -3.155385 -0.588762 8.374011
v 9.789642 -0.588763 9.720790
v -1.361255 -0.588762 9.720998
v -1.361254 -0.588762 8.374011
v -3.833858 -0.588763 9.720790
v -3.833858 -0.588763 9.720790
v -2.888319 -0.243263 8.586277
v -1.628321 -0.439348 9.694933
v -2.888319 -0.439348 9.694933
v -1.628321 -0.243263 9.694933
v -2.888319 -0.243263 9.694933
v -3.833858 -0.588763 9.720790
vn 0.000000 -1.000000 0.000000
vn 1.000000 0.000000 0.000000
vn -0.000000 -0.000000 1.000000
vn -1.000000 -0.000000 -0.000000
vn 0.000000 0.000000 -1.000000
vn 0.000000 -1.000000 0.004800
vn 0.000000 1.000000 -0.000000
vn 0.000000 -1.000000 0.005400
vn 0.000000 1.000000 -0.004900
vn 0.000000 1.000000 -0.005400
vn 0.999800 -0.015600 -0.008200
vn 0.000000 0.111000 0.993800
vn 0.290300 -0.956900 0.004200
vn -0.154300 -0.000100 0.988000
vn 0.000000 -0.134900 0.990900
vn 0.129700 0.000200 0.991600
vn 0.000000 0.004400 1.000000
vn 0.290300 0.956900 -0.004200
vn -0.634400 0.773000 -0.003400
vn 0.098000 -0.995200 0.004300
vn 0.471400 0.881900 -0.003900
vn -0.471400 0.881900 -0.003900
vn -0.098000 -0.995200 0.004300
vn 0.634400 0.773000 -0.003400
vn -0.290300 0.956900 -0.004200
vn -0.290300 -0.956900 0.004200
vn 0.773000 0.634400 -0.002800
vn -0.098000 0.995200 -0.004300
vn -0.471400 -0.881900 0.003900
vn 0.881900 0.471400 -0.002100
vn -0.634400 -0.773000 0.003400
vn 0.956900 0.290300 -0.001300
vn -0.773000 -0.634400 0.002800
vn 0.995200 0.098000 -0.000400
vn -0.881900 -0.471400 0.002100
vn 0.995200 -0.098100 0.000400
vn -0.956900 -0.290300 0.001300
vn 0.956900 -0.290300 0.001300
vn -0.995200 -0.098000 0.000400
vn 0.881900 -0.471400 0.002100
vn -0.995200 0.098000 -0.000400
vn 0.773000 -0.634400 0.002800
vn -0.956900 0.290300 -0.001300
vn 0.634400 -0.773000 0.003400
vn -0.881900 0.471400 -0.002100
vn 0.471400 -0.881900 0.003900
vn 0.098000 0.995200 -0.004300
vn -0.773000 0.634400 -0.002800
usemtl Material
s off
f 1//1 2//1 3//1 4//1
f 7//1 6//1 10//1 12//1
f 1//2 5//2 6//2 2//2
f 2//3 6//3 7//3 3//3
f 3//4 7//4 8//4 4//4
f 5//5 1//5 4//5 8//5
f 12//6 10//6 14//6 16//6
f 6//7 5//7 9//7 10//7
f 8//7 7//7 12//7 11//7
f 5//7 8//7 11//7 9//7
f 21//3 20//3 200//3 17//3
f 9//8 13//8 39//8 37//8
f 11//7 12//7 16//7 15//7
f 9//9 11//9 15//9 13//9
f 200//4 18//4 202//4 204//4
f 24//2 26//2 22//2 20//2
f 25//1 24//1 20//1 21//1
f 27//4 25//4 21//4 23//4
f 23//3 21//3 17//3 19//3
f 193//3 196//3 27//3 26//3
f 196//3 30//3 25//3 27//3
f 30//3 28//3 24//3 25//3
f 26//7 27//7 23//7 22//7
f 196//2 197//2 31//2 30//2
f 28//3 193//3 26//3 24//3
f 197//5 194//5 29//5 31//5
f 31//7 29//7 28//7 30//7
f 194//4 193//4 28//4 29//4
f 13//3 15//3 185//3 181//3
f 15//3 16//3 186//3 185//3
f 14//3 13//3 181//3 183//3
f 16//3 14//3 183//3 186//3
f 10//3 14//3 183//3 184//3
f 10//3 38//3 192//3 184//3
f 40//5 38//5 45//5 46//5
f 14//10 10//10 38//10 40//10
f 13//1 14//1 40//1 39//1
f 38//3 10//3 82//3 84//3
f 42//7 41//7 43//7 44//7
f 38//11 37//11 41//11 42//11
f 37//5 39//5 43//5 41//5
f 39//4 40//4 44//4 43//4
f 48//5 46//5 50//5 52//5
f 44//3 40//3 46//3 48//3
f 38//3 42//3 47//3 45//3
f 42//3 44//3 48//3 47//3
f 49//4 51//4 55//4 53//4
f 47//3 48//3 52//3 51//3
f 45//3 47//3 51//3 49//3
f 49//3 53//3 61//3 59//3
f 54//3 53//3 55//3 56//3
f 50//5 46//5 58//5 60//5
f 52//2 50//2 54//2 56//2
f 51//1 52//1 56//1 55//1
f 61//3 62//3 68//3 67//3
f 62//7 60//7 66//7 68//7
f 45//3 49//3 59//3 57//3
f 54//3 50//3 60//3 62//3
f 46//3 45//3 57//3 58//3
f 53//3 54//3 62//3 61//3
f 69//7 71//7 75//7 73//7
f 65//4 67//4 71//4 69//4
f 60//3 58//3 64//3 66//3
f 58//3 57//3 63//3 64//3
f 59//7 61//7 67//7 65//7
f 57//3 59//3 65//3 63//3
f 76//2 74//2 78//2 80//2
f 68//2 66//2 70//2 72//2
f 67//3 68//3 72//3 71//3
f 72//7 70//7 74//7 76//7
f 71//3 72//3 76//3 75//3
f 78//7 77//7 79//7 80//7
f 75//3 76//3 80//3 79//3
f 73//4 75//4 79//4 77//4
f 63//3 69//3 73//3 77//3 78//3 74//3 70//3 66//3 64//3
f 81//5 83//5 87//5 85//5
f 37//7 38//7 84//7 83//7
f 9//5 37//5 83//5 81//5
f 10//7 9//7 81//7 82//7
f 86//7 85//7 87//7 88//7
f 82//2 81//2 85//2 86//2
f 88//3 84//3 90//3 92//3
f 83//4 84//4 88//4 87//4
f 86//3 88//3 92//3 91//3
f 84//3 82//3 89//3 90//3
f 82//3 86//3 91//3 89//3
f 105//12 106//12 107//12 108//12 109//12 110//12 111//12 112//12 113//12 91//12 92//12
f 108//13 107//13 139//13 140//13
f 97//14 98//14 99//14 100//14 101//14 102//14 103//14 104//14 105//14 92//14 90//14
f 121//15 122//15 123//15 124//15 93//15 94//15 95//15 96//15 97//15 90//15 89//15
f 113//16 114//16 115//16 116//16 117//16 118//16 119//16 120//16 121//16 89//16 91//16
f 125//17 126//17 156//17 155//17 154//17 153//17 152//17 151//17 150//17 149//17 148//17 147//17 146//17 145//17 144//17 143//17 142//17 141//17 140//17 139//17 138//17 137//17 136//17 135//17 134//17 133//17 132//17 131//17 130//17 129//17 128//17 127//17
f 95//18 94//18 125//18 127//18
f 122//19 121//19 153//19 154//19
f 109//20 108//20 140//20 141//20
f 96//21 95//21 127//21 128//21
f 123//22 122//22 154//22 155//22
f 110//23 109//23 141//23 142//23
f 97//24 96//24 128//24 129//24
f 124//25 123//25 155//25 156//25
f 111//26 110//26 142//26 143//26
f 98//27 97//27 129//27 130//27
f 93//28 124//28 156//28 126//28
f 112//29 111//29 143//29 144//29
f 99//30 98//30 130//30 131//30
f 113//31 112//31 144//31 145//31
f 100//32 99//32 131//32 132//32
f 114//33 113//33 145//33 146//33
f 101//34 100//34 132//34 133//34
f 115//35 114//35 146//35 147//35
f 102//36 101//36 133//36 134//36
f 116//37 115//37 147//37 148//37
f 103//38 102//38 134//38 135//38
f 117//39 116//39 148//39 149//39
f 104//40 103//40 135//40 136//40
f 118//41 117//41 149//41 150//41
f 105//42 104//42 136//42 137//42
f 119//43 118//43 150//43 151//43
f 106//44 105//44 137//44 138//44
f 120//45 119//45 151//45 152//45
f 107//46 106//46 138//46 139//46
f 94//47 93//47 126//47 125//47
f 121//48 120//48 152//48 153//48
f 170//4 168//4 164//4 163//4
f 174//3 172//3 160//3 159//3
f 172//4 174//4 173//4 171//4
f 174//3 178//3 177//3 173//3
f 178//2 176//2 175//2 177//2
f 176//5 172//5 171//5 175//5
f 176//3 178//3 158//3 157//3
f 171//7 173//7 177//7 175//7
f 158//1 159//1 167//1 168//1
f 172//3 176//3 157//3 160//3
f 169//3 170//3 163//3 166//3
f 167//2 169//2 166//2 165//2
f 168//5 167//5 165//5 164//5
f 163//1 164//1 165//1 166//1
f 160//1 157//1 170//1 169//1
f 157//1 158//1 168//1 170//1
f 159//1 160//1 169//1 167//1
f 178//3 174//3 159//3 158//3
f 186//3 183//3 35//3 32//3
f 184//3 183//3 35//3 34//3
f 181//3 185//3 33//3 36//3
f 184//3 192//3 198//3 34//3
f 185//3 186//3 32//3 33//3
f 183//3 181//3 36//3 35//3
f 34//3 198//3 199//3 189//3
f 33//3 32//3 191//3 190//3
f 36//3 33//3 190//3 187//3
f 34//3 35//3 188//3 189//3
f 32//3 35//3 188//3 191//3
f 35//3 36//3 187//3 188//3
f 187//3 190//3 194//3 197//3
f 190//3 191//3 193//3 194//3
f 189//3 199//3 205//3 195//3
f 188//3 187//3 197//3 196//3
f 191//3 188//3 196//3 193//3
f 189//3 188//3 196//3 195//3
f 20//3 22//3 18//3 200//3
f 22//3 23//3 19//3 18//3
f 202//3 201//3 203//3 204//3
f 18//1 19//1 201//1 202//1
f 19//2 17//2 203//2 201//2
f 17//7 200//7 204//7 203//7
l 162 180
l 179 161
