# Blender v2.76 (sub 0) OBJ File: 'laptop-bottom.blend'
# www.blender.org
mtllib laptop-bottom.mtl
o Merged_Meshes
v -4.929245 -0.006608 -6.902500
v -4.884345 -0.006608 -6.932500
v 3.977855 -0.006608 -6.988200
v -4.671946 -0.006608 -6.988200
v 4.037555 -0.006608 -6.984300
v 4.090555 -0.006608 -6.973700
v -4.884345 -0.006608 6.932500
v -4.671946 -0.006608 6.988200
v 4.275655 -0.006608 -6.866800
v 4.275655 -0.006608 6.866800
v -4.835845 -0.006608 -6.956400
v 4.235055 -0.006608 -6.902500
v 4.190155 -0.006608 -6.932500
v -4.731745 -0.006608 -6.984300
v 4.037555 -0.006608 6.984300
v -4.929245 -0.006608 6.902500
v 4.090555 -0.006608 6.973700
v 3.977855 -0.006608 6.988200
v 4.190155 -0.006608 6.932500
v 4.141655 -0.006608 -6.956400
v 4.141655 -0.006608 6.956400
v -4.731745 -0.006608 6.984300
v -4.835845 -0.006608 6.956400
v -4.784645 -0.006608 6.973700
v -4.784645 -0.006608 -6.973700
v 4.235055 -0.006608 6.902500
vt 0.000000 0.000000
vn 0.000000 -1.000000 0.000000
usemtl Merged_MeshesDefault
s off
f 16/1/1 1/1/1 2/1/1 11/1/1 25/1/1 14/1/1 4/1/1 3/1/1 5/1/1 6/1/1 20/1/1 13/1/1 12/1/1 9/1/1 10/1/1 26/1/1 19/1/1 21/1/1 17/1/1 15/1/1 18/1/1 8/1/1 22/1/1 24/1/1 23/1/1 7/1/1
